<svg width="900" height="720" viewBox="0 0 900 720" fill="none" xmlns="http://www.w3.org/2000/svg">
  <rect width="900" height="720" rx="36" fill="url(#paint0_linear_44_1)"/>
  <circle cx="162" cy="584" r="124" fill="#4CB9E7" fill-opacity="0.18"/>
  <circle cx="450" cy="286" r="154" fill="#FFF1EC"/>
  <rect x="283" y="448" width="334" height="170" rx="86" fill="#FFFFFF"/>
  <rect x="372" y="452" width="154" height="166" rx="42" fill="#F9FDFF"/>
  <circle cx="450" cy="254" r="92" fill="#F1C0A5"/>
  <path d="M350 219C350 162.115 396.115 116 453 116C509.885 116 556 162.115 556 219V247H350V219Z" fill="#3A1F30"/>
  <path d="M356 205C392 171 419 160 453 160C487 160 520 171 550 210V247H356V205Z" fill="#522B42"/>
  <circle cx="413" cy="258" r="14" fill="#1A1A1A"/>
  <circle cx="490" cy="258" r="14" fill="#1A1A1A"/>
  <path d="M417 304C441 324 470 324 494 304" stroke="#C46956" stroke-width="8" stroke-linecap="round"/>
  <path d="M368 452C388 397 425 370 450 370C475 370 512 397 532 452H368Z" fill="#B7E3F6"/>
  <rect x="435" y="387" width="30" height="78" rx="15" fill="#F1C0A5"/>
  <circle cx="709" cy="122" r="98" fill="#0D4C92" fill-opacity="0.12"/>
  <defs>
    <linearGradient id="paint0_linear_44_1" x1="71" y1="55" x2="827" y2="666" gradientUnits="userSpaceOnUse">
      <stop stop-color="#FFFFFF"/>
      <stop offset="1" stop-color="#D7EFFA"/>
    </linearGradient>
  </defs>
</svg>
