<svg width="900" height="720" viewBox="0 0 900 720" fill="none" xmlns="http://www.w3.org/2000/svg">
  <rect width="900" height="720" rx="36" fill="url(#paint0_linear_41_1)"/>
  <circle cx="702" cy="102" r="118" fill="white" fill-opacity="0.18"/>
  <circle cx="452" cy="286" r="154" fill="#DFF4FD"/>
  <rect x="285" y="448" width="334" height="170" rx="86" fill="white"/>
  <rect x="372" y="452" width="156" height="166" rx="42" fill="#F5FAFD"/>
  <circle cx="452" cy="254" r="92" fill="#F4C8AE"/>
  <path d="M366 224C366 166.562 412.562 120 470 120H495C550.228 120 595 164.772 595 220V248H366V224Z" fill="#0D4C92"/>
  <circle cx="413" cy="258" r="14" fill="#1A1A1A"/>
  <circle cx="491" cy="258" r="14" fill="#1A1A1A"/>
  <path d="M418 304C441 323 470 323 493 304" stroke="#C66C53" stroke-width="8" stroke-linecap="round"/>
  <path d="M369 452C389 395 426 366 452 366C478 366 515 395 535 452H369Z" fill="#B7E3F6"/>
  <rect x="437" y="387" width="30" height="78" rx="15" fill="#F4C8AE"/>
  <path d="M325 620H579" stroke="#D7EAF6" stroke-width="18" stroke-linecap="round"/>
  <defs>
    <linearGradient id="paint0_linear_41_1" x1="73" y1="49" x2="825" y2="664" gradientUnits="userSpaceOnUse">
      <stop stop-color="#0D4C92"/>
      <stop offset="1" stop-color="#4CB9E7"/>
    </linearGradient>
  </defs>
</svg>
