<svg width="900" height="720" viewBox="0 0 900 720" fill="none" xmlns="http://www.w3.org/2000/svg">
  <rect width="900" height="720" rx="36" fill="url(#paint0_linear_42_1)"/>
  <circle cx="164" cy="112" r="128" fill="#0D4C92" fill-opacity="0.12"/>
  <circle cx="448" cy="286" r="154" fill="#FFF1EB"/>
  <rect x="281" y="448" width="334" height="170" rx="86" fill="#FFFFFF"/>
  <rect x="370" y="452" width="154" height="166" rx="42" fill="#F9FDFF"/>
  <circle cx="448" cy="254" r="92" fill="#E8B89B"/>
  <path d="M353 215C353 160.324 397.324 116 452 116C506.676 116 551 160.324 551 215V243H353V215Z" fill="#3C2B2A"/>
  <path d="M359 226C375 195 402 168 452 168C502 168 529 195 545 226V258H359V226Z" fill="#563A37"/>
  <circle cx="411" cy="258" r="14" fill="#1A1A1A"/>
  <circle cx="488" cy="258" r="14" fill="#1A1A1A"/>
  <path d="M414 303C437 321 466 321 489 303" stroke="#C76E58" stroke-width="8" stroke-linecap="round"/>
  <path d="M368 452C388 397 425 370 448 370C471 370 508 397 528 452H368Z" fill="#B7E3F6"/>
  <rect x="433" y="387" width="30" height="78" rx="15" fill="#E8B89B"/>
  <circle cx="700" cy="594" r="102" fill="#4CB9E7" fill-opacity="0.12"/>
  <defs>
    <linearGradient id="paint0_linear_42_1" x1="86" y1="53" x2="813" y2="666" gradientUnits="userSpaceOnUse">
      <stop stop-color="#FFFFFF"/>
      <stop offset="1" stop-color="#B7E3F6"/>
    </linearGradient>
  </defs>
</svg>
