<svg width="900" height="720" viewBox="0 0 900 720" fill="none" xmlns="http://www.w3.org/2000/svg">
  <rect width="900" height="720" rx="36" fill="url(#paint0_linear_43_1)"/>
  <circle cx="731" cy="127" r="122" fill="#4CB9E7" fill-opacity="0.16"/>
  <circle cx="450" cy="286" r="154" fill="#E8F6FD"/>
  <rect x="283" y="448" width="334" height="170" rx="86" fill="#FFFFFF"/>
  <rect x="372" y="452" width="154" height="166" rx="42" fill="#F5FAFD"/>
  <circle cx="450" cy="254" r="92" fill="#E6BB9F"/>
  <path d="M356 220C356 164.219 401.219 119 457 119C512.781 119 558 164.219 558 220V246H356V220Z" fill="#132B4C"/>
  <path d="M366 180C402 152 428 142 457 142C486 142 522 154 547 184V245H366V180Z" fill="#0D4C92"/>
  <circle cx="414" cy="258" r="14" fill="#1A1A1A"/>
  <circle cx="491" cy="258" r="14" fill="#1A1A1A"/>
  <path d="M418 303C441 323 470 323 493 303" stroke="#C46C56" stroke-width="8" stroke-linecap="round"/>
  <path d="M371 452C391 395 428 366 450 366C472 366 509 395 529 452H371Z" fill="#FFFFFF"/>
  <rect x="435" y="387" width="30" height="78" rx="15" fill="#E6BB9F"/>
  <path d="M313 452H589L542 618H360L313 452Z" fill="#D7EDF8"/>
  <defs>
    <linearGradient id="paint0_linear_43_1" x1="80" y1="52" x2="820" y2="668" gradientUnits="userSpaceOnUse">
      <stop stop-color="#082C55"/>
      <stop offset="1" stop-color="#4CB9E7"/>
    </linearGradient>
  </defs>
</svg>
