<svg width="1200" height="630" viewBox="0 0 1200 630" fill="none" xmlns="http://www.w3.org/2000/svg">
  <rect width="1200" height="630" fill="#061C36"/>
  <circle cx="217" cy="148" r="191" fill="#4CB9E7" fill-opacity="0.18"/>
  <circle cx="1016" cy="585" r="242" fill="#0D4C92"/>
  <circle cx="913" cy="132" r="145" fill="#B7E3F6" fill-opacity="0.22"/>
  <rect x="74" y="69" width="1052" height="492" rx="44" fill="white" fill-opacity="0.06" stroke="white" stroke-opacity="0.14"/>
  <text x="110" y="174" fill="#4CB9E7" font-family="Arial, sans-serif" font-size="28" font-weight="700" letter-spacing="10">PARAM'S DENTAL</text>
  <text x="110" y="292" fill="white" font-family="Arial, sans-serif" font-size="76" font-weight="700">Your Perfect Smile</text>
  <text x="110" y="374" fill="white" font-family="Arial, sans-serif" font-size="76" font-weight="700">Starts Here</text>
  <text x="110" y="447" fill="#D8EAF4" font-family="Arial, sans-serif" font-size="28">Advanced dental care, elegant design, painless treatments.</text>
  <g filter="url(#filter0_d_1_2)">
    <rect x="819" y="112" width="220" height="282" rx="48" fill="url(#paint0_linear_1_2)"/>
    <path d="M891 174C869.461 174 852 191.461 852 213V249C852 308.257 894.607 358.367 952.5 367.738C1010.39 358.367 1053 308.257 1053 249V213C1053 191.461 1035.54 174 1014 174H891Z" fill="white"/>
  </g>
  <defs>
    <filter id="filter0_d_1_2" x="783" y="96" width="292" height="354" filterUnits="userSpaceOnUse" color-interpolation-filters="sRGB">
      <feFlood flood-opacity="0" result="BackgroundImageFix"/>
      <feColorMatrix in="SourceAlpha" type="matrix" values="0 0 0 0 0 0 0 0 0 0 0 0 0 0 0 0 0 0 127 0" result="hardAlpha"/>
      <feOffset dy="20"/>
      <feGaussianBlur stdDeviation="18"/>
      <feColorMatrix type="matrix" values="0 0 0 0 0.0470588 0 0 0 0 0.298039 0 0 0 0 0.572549 0 0 0 0.28 0"/>
      <feBlend mode="normal" in2="BackgroundImageFix" result="effect1_dropShadow_1_2"/>
      <feBlend mode="normal" in="SourceGraphic" in2="effect1_dropShadow_1_2" result="shape"/>
    </filter>
    <linearGradient id="paint0_linear_1_2" x1="838" y1="142" x2="1031" y2="374" gradientUnits="userSpaceOnUse">
      <stop stop-color="#0D4C92"/>
      <stop offset="1" stop-color="#4CB9E7"/>
    </linearGradient>
  </defs>
</svg>
